<?xml version="1.0" encoding="UTF-8" standalone="no"?>
<svg width="305.858mm" height="95.5146mm"
 viewBox="0 0 1156 361"
 xmlns="http://www.w3.org/2000/svg" xmlns:xlink="http://www.w3.org/1999/xlink"  version="1.2" baseProfile="tiny">
<title>Qt SVG Document</title>
<desc>Generated with Qt</desc>
<defs>
</defs>
<g fill="none" stroke="black" stroke-width="1" fill-rule="evenodd" stroke-linecap="square" stroke-linejoin="bevel" >

<g fill="none" stroke="#000000" stroke-opacity="1" stroke-width="1" stroke-linecap="square" stroke-linejoin="bevel" transform="matrix(1,0,0,1,0,0)"
font-family="Cantarell" font-size="13.3333" font-weight="400" font-style="normal" 
>
</g>

<g fill="none" stroke="#000000" stroke-opacity="1" stroke-width="1" stroke-linecap="square" stroke-linejoin="bevel" transform="matrix(1,0,0,1,0,0)"
font-family="Cantarell" font-size="13.3333" font-weight="400" font-style="normal" 
>
</g>

<g fill="none" stroke="#000000" stroke-opacity="1" stroke-width="1" stroke-linecap="square" stroke-linejoin="bevel" transform="matrix(0.99449,0,0,0.99449,1782.13,-78.5647)"
font-family="Cantarell" font-size="13.3333" font-weight="400" font-style="normal" 
>
</g>

<g fill="#ffffff" fill-opacity="1" stroke="none" transform="matrix(0.99449,0,0,0.99449,1782.13,-78.5647)"
font-family="Cantarell" font-size="13.3333" font-weight="400" font-style="normal" 
>
<rect x="-1792" y="79" width="1158" height="363"/>
</g>

<g fill="none" stroke="#000000" stroke-opacity="1" stroke-width="1" stroke-linecap="square" stroke-linejoin="bevel" transform="matrix(0.99449,0,0,0.99449,1782.13,-78.5647)"
font-family="Cantarell" font-size="13.3333" font-weight="400" font-style="normal" 
>
</g>

<g fill="none" stroke="#000000" stroke-opacity="1" stroke-width="1" stroke-linecap="square" stroke-linejoin="bevel" transform="matrix(0.99449,0,0,0.99449,1782.13,-78.5647)"
font-family="Cantarell" font-size="13.3333" font-weight="400" font-style="normal" 
>
</g>

<g fill="none" stroke="#ff0000" stroke-opacity="1" stroke-dasharray="4,2" stroke-dashoffset="0" stroke-width="1" stroke-linecap="square" stroke-linejoin="bevel" transform="matrix(0.99449,0,0,0.99449,1782.13,-78.5647)"
font-family="Cantarell" font-size="13.3333" font-weight="400" font-style="normal" 
>
<polyline fill="none" vector-effect="non-scaling-stroke" points="-1492,106 -1492,441 " />
</g>

<g fill="none" stroke="#000000" stroke-opacity="1" stroke-width="1" stroke-linecap="square" stroke-linejoin="bevel" transform="matrix(0.99449,0,0,0.99449,1782.13,-78.5647)"
font-family="Cantarell" font-size="13.3333" font-weight="400" font-style="normal" 
>
</g>

<g fill="none" stroke="#000000" stroke-opacity="1" stroke-width="1" stroke-linecap="square" stroke-linejoin="bevel" transform="matrix(0.99449,0,0,0.99449,267.518,0.99449)"
font-family="Cantarell" font-size="13.3333" font-weight="400" font-style="normal" 
>
</g>

<g fill="#ffff00" fill-opacity="1" stroke="#ff0000" stroke-opacity="1" stroke-width="1" stroke-linecap="square" stroke-linejoin="bevel" transform="matrix(0.99449,0,0,0.99449,267.518,0.99449)"
font-family="Cantarell" font-size="13.3333" font-weight="400" font-style="normal" 
>
<rect vector-effect="non-scaling-stroke" x="0" y="0" width="62" height="26"/>
</g>

<g fill="#ffff00" fill-opacity="1" stroke="#000000" stroke-opacity="1" stroke-width="1" stroke-linecap="square" stroke-linejoin="bevel" transform="matrix(0.99449,0,0,0.99449,267.518,0.99449)"
font-family="Cantarell" font-size="13.3333" font-weight="400" font-style="normal" 
>
</g>

<g fill="#ffff00" fill-opacity="1" stroke="#000000" stroke-opacity="1" stroke-width="1" stroke-linecap="square" stroke-linejoin="bevel" transform="matrix(0.99449,0,0,0.99449,267.518,0.99449)"
font-family="Cantarell" font-size="13.3333" font-weight="400" font-style="normal" 
>
</g>

<g fill="#ffff00" fill-opacity="1" stroke="#000000" stroke-opacity="1" stroke-width="1" stroke-linecap="square" stroke-linejoin="bevel" transform="matrix(0.99449,0,0,0.99449,267.518,0.99449)"
font-family="Cantarell" font-size="13.3333" font-weight="400" font-style="normal" 
>
<text fill="#000000" fill-opacity="1" stroke="none" xml:space="preserve" x="4.85938" y="17.5" font-family="Cantarell" font-size="13.3333" font-weight="400" font-style="normal" 
 > : System</text>
</g>

<g fill="#ffff00" fill-opacity="1" stroke="#000000" stroke-opacity="1" stroke-width="1" stroke-linecap="butt" stroke-linejoin="bevel" transform="matrix(0.99449,0,0,0.99449,267.518,0.99449)"
font-family="Cantarell" font-size="13.3333" font-weight="400" font-style="normal" 
>
<polyline fill="none" vector-effect="none" points="4,20 57,20 " />
</g>

<g fill="#ffff00" fill-opacity="1" stroke="#000000" stroke-opacity="1" stroke-width="1" stroke-linecap="square" stroke-linejoin="bevel" transform="matrix(0.99449,0,0,0.99449,267.518,0.99449)"
font-family="Cantarell" font-size="13.3333" font-weight="400" font-style="normal" 
>
</g>

<g fill="#ffff00" fill-opacity="1" stroke="#000000" stroke-opacity="1" stroke-width="1" stroke-linecap="square" stroke-linejoin="bevel" transform="matrix(1,0,0,1,0,0)"
font-family="Cantarell" font-size="13.3333" font-weight="400" font-style="normal" 
>
</g>

<g fill="#ffff00" fill-opacity="1" stroke="#000000" stroke-opacity="1" stroke-width="1" stroke-linecap="square" stroke-linejoin="bevel" transform="matrix(0.99449,0,0,0.99449,267.518,0.99449)"
font-family="Cantarell" font-size="13.3333" font-weight="400" font-style="normal" 
>
</g>

<g fill="none" stroke="#000000" stroke-opacity="1" stroke-width="1" stroke-linecap="square" stroke-linejoin="bevel" transform="matrix(0.99449,0,0,0.99449,267.518,0.99449)"
font-family="Cantarell" font-size="13.3333" font-weight="400" font-style="normal" 
>
</g>

<g fill="none" stroke="#000000" stroke-opacity="1" stroke-width="1" stroke-linecap="square" stroke-linejoin="bevel" transform="matrix(0.99449,0,0,0.99449,1782.13,-78.5647)"
font-family="Cantarell" font-size="13.3333" font-weight="400" font-style="normal" 
>
</g>

<g fill="none" stroke="#ff0000" stroke-opacity="1" stroke-dasharray="4,2" stroke-dashoffset="0" stroke-width="1" stroke-linecap="square" stroke-linejoin="bevel" transform="matrix(0.99449,0,0,0.99449,1782.13,-78.5647)"
font-family="Cantarell" font-size="13.3333" font-weight="400" font-style="normal" 
>
<polyline fill="none" vector-effect="non-scaling-stroke" points="-918,117 -918,381 " />
</g>

<g fill="none" stroke="#000000" stroke-opacity="1" stroke-width="1" stroke-linecap="square" stroke-linejoin="bevel" transform="matrix(0.99449,0,0,0.99449,1782.13,-78.5647)"
font-family="Cantarell" font-size="13.3333" font-weight="400" font-style="normal" 
>
</g>

<g fill="none" stroke="#000000" stroke-opacity="1" stroke-width="1" stroke-linecap="square" stroke-linejoin="bevel" transform="matrix(0.99449,0,0,0.99449,791.614,0.99449)"
font-family="Cantarell" font-size="13.3333" font-weight="400" font-style="normal" 
>
</g>

<g fill="#ffff00" fill-opacity="1" stroke="#ff0000" stroke-opacity="1" stroke-width="1" stroke-linecap="square" stroke-linejoin="bevel" transform="matrix(0.99449,0,0,0.99449,791.614,0.99449)"
font-family="Cantarell" font-size="13.3333" font-weight="400" font-style="normal" 
>
<rect vector-effect="non-scaling-stroke" x="0" y="0" width="156" height="37"/>
</g>

<g fill="#ffff00" fill-opacity="1" stroke="#000000" stroke-opacity="1" stroke-width="1" stroke-linecap="square" stroke-linejoin="bevel" transform="matrix(0.99449,0,0,0.99449,791.614,0.99449)"
font-family="Cantarell" font-size="13.3333" font-weight="400" font-style="normal" 
>
</g>

<g fill="#ffff00" fill-opacity="1" stroke="#000000" stroke-opacity="1" stroke-width="1" stroke-linecap="square" stroke-linejoin="bevel" transform="matrix(0.99449,0,0,0.99449,791.614,0.99449)"
font-family="Cantarell" font-size="13.3333" font-weight="400" font-style="normal" 
>
<text fill="#000000" fill-opacity="1" stroke="none" xml:space="preserve" x="5.04688" y="23" font-family="Cantarell" font-size="13.3333" font-weight="400" font-style="normal" 
 >metronome : IMetronome</text>
</g>

<g fill="#ffff00" fill-opacity="1" stroke="#000000" stroke-opacity="1" stroke-width="1" stroke-linecap="butt" stroke-linejoin="bevel" transform="matrix(0.99449,0,0,0.99449,791.614,0.99449)"
font-family="Cantarell" font-size="13.3333" font-weight="400" font-style="normal" 
>
<polyline fill="none" vector-effect="none" points="5,25.5 150,25.5 " />
</g>

<g fill="none" stroke="#000000" stroke-opacity="1" stroke-width="1" stroke-linecap="square" stroke-linejoin="bevel" transform="matrix(0.99449,0,0,0.99449,791.614,0.99449)"
font-family="Cantarell" font-size="13.3333" font-weight="400" font-style="normal" 
>
</g>

<g fill="none" stroke="#000000" stroke-opacity="1" stroke-width="1" stroke-linecap="square" stroke-linejoin="bevel" transform="matrix(0.99449,0,0,0.99449,1782.13,-78.5647)"
font-family="Cantarell" font-size="13.3333" font-weight="400" font-style="normal" 
>
</g>

<g fill="none" stroke="#ff0000" stroke-opacity="1" stroke-dasharray="4,2" stroke-dashoffset="0" stroke-width="1" stroke-linecap="square" stroke-linejoin="bevel" transform="matrix(0.99449,0,0,0.99449,1782.13,-78.5647)"
font-family="Cantarell" font-size="13.3333" font-weight="400" font-style="normal" 
>
<polyline fill="none" vector-effect="non-scaling-stroke" points="-1253,117 -1253,411 " />
</g>

<g fill="none" stroke="#000000" stroke-opacity="1" stroke-width="1" stroke-linecap="square" stroke-linejoin="bevel" transform="matrix(0.99449,0,0,0.99449,1782.13,-78.5647)"
font-family="Cantarell" font-size="13.3333" font-weight="400" font-style="normal" 
>
</g>

<g fill="none" stroke="#000000" stroke-opacity="1" stroke-width="1" stroke-linecap="square" stroke-linejoin="bevel" transform="matrix(0.99449,0,0,0.99449,476.361,0.99449)"
font-family="Cantarell" font-size="13.3333" font-weight="400" font-style="normal" 
>
</g>

<g fill="#ffff00" fill-opacity="1" stroke="#ff0000" stroke-opacity="1" stroke-width="1" stroke-linecap="square" stroke-linejoin="bevel" transform="matrix(0.99449,0,0,0.99449,476.361,0.99449)"
font-family="Cantarell" font-size="13.3333" font-weight="400" font-style="normal" 
>
<rect vector-effect="non-scaling-stroke" x="0" y="0" width="120" height="37"/>
</g>

<g fill="#ffff00" fill-opacity="1" stroke="#000000" stroke-opacity="1" stroke-width="1" stroke-linecap="square" stroke-linejoin="bevel" transform="matrix(0.99449,0,0,0.99449,476.361,0.99449)"
font-family="Cantarell" font-size="13.3333" font-weight="400" font-style="normal" 
>
</g>

<g fill="#ffff00" fill-opacity="1" stroke="#000000" stroke-opacity="1" stroke-width="1" stroke-linecap="square" stroke-linejoin="bevel" transform="matrix(0.99449,0,0,0.99449,476.361,0.99449)"
font-family="Cantarell" font-size="13.3333" font-weight="400" font-style="normal" 
>
<text fill="#000000" fill-opacity="1" stroke="none" xml:space="preserve" x="5.15625" y="23" font-family="Cantarell" font-size="13.3333" font-weight="400" font-style="normal" 
 >measure : IMeasure</text>
</g>

<g fill="#ffff00" fill-opacity="1" stroke="#000000" stroke-opacity="1" stroke-width="1" stroke-linecap="butt" stroke-linejoin="bevel" transform="matrix(0.99449,0,0,0.99449,476.361,0.99449)"
font-family="Cantarell" font-size="13.3333" font-weight="400" font-style="normal" 
>
<polyline fill="none" vector-effect="none" points="5,25.5 114,25.5 " />
</g>

<g fill="none" stroke="#000000" stroke-opacity="1" stroke-width="1" stroke-linecap="square" stroke-linejoin="bevel" transform="matrix(0.99449,0,0,0.99449,476.361,0.99449)"
font-family="Cantarell" font-size="13.3333" font-weight="400" font-style="normal" 
>
</g>

<g fill="none" stroke="#000000" stroke-opacity="1" stroke-width="1" stroke-linecap="square" stroke-linejoin="bevel" transform="matrix(0.99449,0,0,0.99449,1782.13,-78.5647)"
font-family="Cantarell" font-size="13.3333" font-weight="400" font-style="normal" 
>
</g>

<g fill="none" stroke="#ff0000" stroke-opacity="1" stroke-dasharray="4,2" stroke-dashoffset="0" stroke-width="1" stroke-linecap="square" stroke-linejoin="bevel" transform="matrix(0.99449,0,0,0.99449,1782.13,-78.5647)"
font-family="Cantarell" font-size="13.3333" font-weight="400" font-style="normal" 
>
<polyline fill="none" vector-effect="non-scaling-stroke" points="-1765,141 -1765,441 " />
</g>

<g fill="none" stroke="#000000" stroke-opacity="1" stroke-width="1" stroke-linecap="square" stroke-linejoin="bevel" transform="matrix(0.99449,0,0,0.99449,1782.13,-78.5647)"
font-family="Cantarell" font-size="13.3333" font-weight="400" font-style="normal" 
>
</g>

<g fill="none" stroke="#000000" stroke-opacity="1" stroke-width="1" stroke-linecap="square" stroke-linejoin="bevel" transform="matrix(0.99449,0,0,0.99449,0.99449,0.99449)"
font-family="Cantarell" font-size="13.3333" font-weight="400" font-style="normal" 
>
</g>

<g fill="#ffff00" fill-opacity="1" stroke="#ff0000" stroke-opacity="1" stroke-width="1" stroke-linecap="square" stroke-linejoin="bevel" transform="matrix(0.99449,0,0,0.99449,0.99449,0.99449)"
font-family="Cantarell" font-size="13.3333" font-weight="400" font-style="normal" 
>
<ellipse vector-effect="non-scaling-stroke" cx="25" cy="6.5" rx="10" ry="6.5"/>
<polyline fill="none" vector-effect="non-scaling-stroke" points="25,13 25,26 " />
<polyline fill="none" vector-effect="non-scaling-stroke" points="25,26 15,40 " />
<polyline fill="none" vector-effect="non-scaling-stroke" points="25,26 35,40 " />
<polyline fill="none" vector-effect="non-scaling-stroke" points="15,19 35,19 " />
</g>

<g fill="#ffff00" fill-opacity="1" stroke="#000000" stroke-opacity="1" stroke-width="1" stroke-linecap="square" stroke-linejoin="bevel" transform="matrix(0.99449,0,0,0.99449,0.99449,0.99449)"
font-family="Cantarell" font-size="13.3333" font-weight="400" font-style="normal" 
>
</g>

<g fill="#ffff00" fill-opacity="1" stroke="#000000" stroke-opacity="1" stroke-width="1" stroke-linecap="square" stroke-linejoin="bevel" transform="matrix(0.99449,0,0,0.99449,0.99449,0.99449)"
font-family="Cantarell" font-size="13.3333" font-weight="400" font-style="normal" 
>
</g>

<g fill="#ffff00" fill-opacity="1" stroke="#000000" stroke-opacity="1" stroke-width="1" stroke-linecap="square" stroke-linejoin="bevel" transform="matrix(0.99449,0,0,0.99449,0.99449,0.99449)"
font-family="Cantarell" font-size="13.3333" font-weight="400" font-style="normal" 
>
<text fill="#000000" fill-opacity="1" stroke="none" xml:space="preserve" x="4.92188" y="57.5" font-family="Cantarell" font-size="13.3333" font-weight="400" font-style="normal" 
 > : Actor</text>
</g>

<g fill="#ffff00" fill-opacity="1" stroke="#000000" stroke-opacity="1" stroke-width="1" stroke-linecap="square" stroke-linejoin="bevel" transform="matrix(0.99449,0,0,0.99449,0.99449,0.99449)"
font-family="Cantarell" font-size="13.3333" font-weight="400" font-style="normal" 
>
</g>

<g fill="#ffff00" fill-opacity="1" stroke="#000000" stroke-opacity="1" stroke-width="1" stroke-linecap="square" stroke-linejoin="bevel" transform="matrix(1,0,0,1,0,0)"
font-family="Cantarell" font-size="13.3333" font-weight="400" font-style="normal" 
>
</g>

<g fill="#ffff00" fill-opacity="1" stroke="#000000" stroke-opacity="1" stroke-width="1" stroke-linecap="square" stroke-linejoin="bevel" transform="matrix(0.99449,0,0,0.99449,0.99449,0.99449)"
font-family="Cantarell" font-size="13.3333" font-weight="400" font-style="normal" 
>
</g>

<g fill="none" stroke="#000000" stroke-opacity="1" stroke-width="1" stroke-linecap="square" stroke-linejoin="bevel" transform="matrix(0.99449,0,0,0.99449,0.99449,0.99449)"
font-family="Cantarell" font-size="13.3333" font-weight="400" font-style="normal" 
>
</g>

<g fill="none" stroke="#000000" stroke-opacity="1" stroke-width="1" stroke-linecap="square" stroke-linejoin="bevel" transform="matrix(0.99449,0,0,0.99449,323.209,118.344)"
font-family="Cantarell" font-size="13.3333" font-weight="400" font-style="normal" 
>
</g>

<g fill="none" stroke="#000000" stroke-opacity="1" stroke-width="1" stroke-linecap="square" stroke-linejoin="bevel" transform="matrix(0.99449,0,0,0.99449,323.209,118.344)"
font-family="Cantarell" font-size="13.3333" font-weight="400" font-style="normal" 
>
</g>

<g fill="none" stroke="#000000" stroke-opacity="1" stroke-width="1" stroke-linecap="square" stroke-linejoin="bevel" transform="matrix(0.99449,0,0,0.99449,323.209,118.344)"
font-family="Cantarell" font-size="13.3333" font-weight="400" font-style="normal" 
>
<text fill="#000000" fill-opacity="1" stroke="none" xml:space="preserve" x="3.82813" y="14.5" font-family="Cantarell" font-size="13.3333" font-weight="400" font-style="normal" 
 >on_btn_moveDown_clicked()</text>
</g>

<g fill="none" stroke="#000000" stroke-opacity="1" stroke-width="1" stroke-linecap="square" stroke-linejoin="bevel" transform="matrix(0.99449,0,0,0.99449,323.209,118.344)"
font-family="Cantarell" font-size="13.3333" font-weight="400" font-style="normal" 
>
</g>

<g fill="none" stroke="#000000" stroke-opacity="1" stroke-width="1" stroke-linecap="square" stroke-linejoin="bevel" transform="matrix(0.99449,0,0,0.99449,298.347,138.234)"
font-family="Cantarell" font-size="13.3333" font-weight="400" font-style="normal" 
>
</g>

<g fill="#ffffff" fill-opacity="1" stroke="none" transform="matrix(0.99449,0,0,0.99449,298.347,138.234)"
font-family="Cantarell" font-size="13.3333" font-weight="400" font-style="normal" 
>
<rect x="230" y="0" width="17" height="173"/>
</g>

<g fill="#ffff00" fill-opacity="1" stroke="#ff0000" stroke-opacity="1" stroke-width="1" stroke-linecap="square" stroke-linejoin="bevel" transform="matrix(0.99449,0,0,0.99449,298.347,138.234)"
font-family="Cantarell" font-size="13.3333" font-weight="400" font-style="normal" 
>
<rect vector-effect="non-scaling-stroke" x="230" y="0" width="17" height="173"/>
<polyline fill="none" vector-effect="non-scaling-stroke" points="8,4 230,4 " />
</g>

<g fill="#ff0000" fill-opacity="1" stroke="#ff0000" stroke-opacity="1" stroke-width="1" stroke-linecap="square" stroke-linejoin="bevel" transform="matrix(0.99449,0,0,0.99449,298.347,138.234)"
font-family="Cantarell" font-size="13.3333" font-weight="400" font-style="normal" 
>
<path vector-effect="non-scaling-stroke" fill-rule="evenodd" d="M229,4 L225,1 L225,7 L229,4"/>
<polyline fill="none" vector-effect="non-scaling-stroke" points="8,170 12,167 " />
<polyline fill="none" vector-effect="non-scaling-stroke" points="8,170 12,173 " />
</g>

<g fill="#ff0000" fill-opacity="1" stroke="#ff0000" stroke-opacity="1" stroke-dasharray="1,2" stroke-dashoffset="0" stroke-width="1" stroke-linecap="square" stroke-linejoin="bevel" transform="matrix(0.99449,0,0,0.99449,298.347,138.234)"
font-family="Cantarell" font-size="13.3333" font-weight="400" font-style="normal" 
>
<polyline fill="none" vector-effect="non-scaling-stroke" points="8,170 230,170 " />
</g>

<g fill="none" stroke="#000000" stroke-opacity="1" stroke-width="1" stroke-linecap="square" stroke-linejoin="bevel" transform="matrix(0.99449,0,0,0.99449,298.347,138.234)"
font-family="Cantarell" font-size="13.3333" font-weight="400" font-style="normal" 
>
</g>

<g fill="none" stroke="#000000" stroke-opacity="1" stroke-width="1" stroke-linecap="square" stroke-linejoin="bevel" transform="matrix(0.99449,0,0,0.99449,26.8512,103.427)"
font-family="Cantarell" font-size="13.3333" font-weight="400" font-style="normal" 
>
</g>

<g fill="#ffffff" fill-opacity="1" stroke="none" transform="matrix(0.99449,0,0,0.99449,26.8512,103.427)"
font-family="Cantarell" font-size="13.3333" font-weight="400" font-style="normal" 
>
<rect x="264" y="0" width="17" height="238"/>
</g>

<g fill="#ffff00" fill-opacity="1" stroke="#ff0000" stroke-opacity="1" stroke-width="1" stroke-linecap="square" stroke-linejoin="bevel" transform="matrix(0.99449,0,0,0.99449,26.8512,103.427)"
font-family="Cantarell" font-size="13.3333" font-weight="400" font-style="normal" 
>
<rect vector-effect="non-scaling-stroke" x="264" y="0" width="17" height="238"/>
<polyline fill="none" vector-effect="non-scaling-stroke" points="0,4 264,4 " />
</g>

<g fill="#ff0000" fill-opacity="1" stroke="#ff0000" stroke-opacity="1" stroke-width="1" stroke-linecap="square" stroke-linejoin="bevel" transform="matrix(0.99449,0,0,0.99449,26.8512,103.427)"
font-family="Cantarell" font-size="13.3333" font-weight="400" font-style="normal" 
>
<path vector-effect="non-scaling-stroke" fill-rule="evenodd" d="M263,4 L259,1 L259,7 L263,4"/>
<polyline fill="none" vector-effect="non-scaling-stroke" points="0,235 4,232 " />
<polyline fill="none" vector-effect="non-scaling-stroke" points="0,235 4,238 " />
</g>

<g fill="#ff0000" fill-opacity="1" stroke="#ff0000" stroke-opacity="1" stroke-dasharray="1,2" stroke-dashoffset="0" stroke-width="1" stroke-linecap="square" stroke-linejoin="bevel" transform="matrix(0.99449,0,0,0.99449,26.8512,103.427)"
font-family="Cantarell" font-size="13.3333" font-weight="400" font-style="normal" 
>
<polyline fill="none" vector-effect="non-scaling-stroke" points="0,235 264,235 " />
</g>

<g fill="none" stroke="#000000" stroke-opacity="1" stroke-width="1" stroke-linecap="square" stroke-linejoin="bevel" transform="matrix(0.99449,0,0,0.99449,26.8512,103.427)"
font-family="Cantarell" font-size="13.3333" font-weight="400" font-style="normal" 
>
</g>

<g fill="none" stroke="#000000" stroke-opacity="1" stroke-width="1" stroke-linecap="square" stroke-linejoin="bevel" transform="matrix(0.99449,0,0,0.99449,536.03,158.124)"
font-family="Cantarell" font-size="13.3333" font-weight="400" font-style="normal" 
>
</g>

<g fill="#ffffff" fill-opacity="1" stroke="none" transform="matrix(0.99449,0,0,0.99449,536.03,158.124)"
font-family="Cantarell" font-size="13.3333" font-weight="400" font-style="normal" 
>
<rect x="326" y="0" width="17" height="123"/>
</g>

<g fill="#ffff00" fill-opacity="1" stroke="#ff0000" stroke-opacity="1" stroke-width="1" stroke-linecap="square" stroke-linejoin="bevel" transform="matrix(0.99449,0,0,0.99449,536.03,158.124)"
font-family="Cantarell" font-size="13.3333" font-weight="400" font-style="normal" 
>
<rect vector-effect="non-scaling-stroke" x="326" y="0" width="17" height="123"/>
<polyline fill="none" vector-effect="non-scaling-stroke" points="8,4 326,4 " />
</g>

<g fill="#ff0000" fill-opacity="1" stroke="#ff0000" stroke-opacity="1" stroke-width="1" stroke-linecap="square" stroke-linejoin="bevel" transform="matrix(0.99449,0,0,0.99449,536.03,158.124)"
font-family="Cantarell" font-size="13.3333" font-weight="400" font-style="normal" 
>
<path vector-effect="non-scaling-stroke" fill-rule="evenodd" d="M325,4 L321,1 L321,7 L325,4"/>
<polyline fill="none" vector-effect="non-scaling-stroke" points="8,120 12,117 " />
<polyline fill="none" vector-effect="non-scaling-stroke" points="8,120 12,123 " />
</g>

<g fill="#ff0000" fill-opacity="1" stroke="#ff0000" stroke-opacity="1" stroke-dasharray="1,2" stroke-dashoffset="0" stroke-width="1" stroke-linecap="square" stroke-linejoin="bevel" transform="matrix(0.99449,0,0,0.99449,536.03,158.124)"
font-family="Cantarell" font-size="13.3333" font-weight="400" font-style="normal" 
>
<polyline fill="none" vector-effect="non-scaling-stroke" points="8,120 326,120 " />
</g>

<g fill="none" stroke="#000000" stroke-opacity="1" stroke-width="1" stroke-linecap="square" stroke-linejoin="bevel" transform="matrix(0.99449,0,0,0.99449,536.03,158.124)"
font-family="Cantarell" font-size="13.3333" font-weight="400" font-style="normal" 
>
</g>

<g fill="none" stroke="#000000" stroke-opacity="1" stroke-width="1" stroke-linecap="square" stroke-linejoin="bevel" transform="matrix(0.99449,0,0,0.99449,867.196,206.854)"
font-family="Cantarell" font-size="13.3333" font-weight="400" font-style="normal" 
>
</g>

<g fill="#ffffff" fill-opacity="1" stroke="none" transform="matrix(0.99449,0,0,0.99449,867.196,206.854)"
font-family="Cantarell" font-size="13.3333" font-weight="400" font-style="normal" 
>
<rect x="0" y="0" width="17" height="21"/>
</g>

<g fill="#ffff00" fill-opacity="1" stroke="#ff0000" stroke-opacity="1" stroke-width="1" stroke-linecap="square" stroke-linejoin="bevel" transform="matrix(0.99449,0,0,0.99449,867.196,206.854)"
font-family="Cantarell" font-size="13.3333" font-weight="400" font-style="normal" 
>
<rect vector-effect="non-scaling-stroke" x="0" y="0" width="17" height="21"/>
<polyline fill="none" vector-effect="non-scaling-stroke" points="17,3 163,3 " />
<polyline fill="none" vector-effect="non-scaling-stroke" points="163,3 163,18 " />
<polyline fill="none" vector-effect="non-scaling-stroke" points="17,18 21,15 " />
<polyline fill="none" vector-effect="non-scaling-stroke" points="17,18 21,21 " />
<polyline fill="none" vector-effect="non-scaling-stroke" points="17,18 163,18 " />
</g>

<g fill="none" stroke="#000000" stroke-opacity="1" stroke-width="1" stroke-linecap="square" stroke-linejoin="bevel" transform="matrix(0.99449,0,0,0.99449,867.196,206.854)"
font-family="Cantarell" font-size="13.3333" font-weight="400" font-style="normal" 
>
</g>

<g fill="none" stroke="#000000" stroke-opacity="1" stroke-width="1" stroke-linecap="square" stroke-linejoin="bevel" transform="matrix(0.99449,0,0,0.99449,86.5207,83.5372)"
font-family="Cantarell" font-size="13.3333" font-weight="400" font-style="normal" 
>
</g>

<g fill="none" stroke="#000000" stroke-opacity="1" stroke-width="1" stroke-linecap="square" stroke-linejoin="bevel" transform="matrix(0.99449,0,0,0.99449,86.5207,83.5372)"
font-family="Cantarell" font-size="13.3333" font-weight="400" font-style="normal" 
>
</g>

<g fill="none" stroke="#000000" stroke-opacity="1" stroke-width="1" stroke-linecap="square" stroke-linejoin="bevel" transform="matrix(0.99449,0,0,0.99449,86.5207,83.5372)"
font-family="Cantarell" font-size="13.3333" font-weight="400" font-style="normal" 
>
<text fill="#000000" fill-opacity="1" stroke="none" xml:space="preserve" x="3.96875" y="14.5" font-family="Cantarell" font-size="13.3333" font-weight="400" font-style="normal" 
 >moveMeasureDown(measure)</text>
</g>

<g fill="none" stroke="#000000" stroke-opacity="1" stroke-width="1" stroke-linecap="square" stroke-linejoin="bevel" transform="matrix(0.99449,0,0,0.99449,86.5207,83.5372)"
font-family="Cantarell" font-size="13.3333" font-weight="400" font-style="normal" 
>
</g>

<g fill="none" stroke="#000000" stroke-opacity="1" stroke-width="1" stroke-linecap="square" stroke-linejoin="bevel" transform="matrix(0.99449,0,0,0.99449,541.003,138.234)"
font-family="Cantarell" font-size="13.3333" font-weight="400" font-style="normal" 
>
</g>

<g fill="none" stroke="#000000" stroke-opacity="1" stroke-width="1" stroke-linecap="square" stroke-linejoin="bevel" transform="matrix(0.99449,0,0,0.99449,541.003,138.234)"
font-family="Cantarell" font-size="13.3333" font-weight="400" font-style="normal" 
>
</g>

<g fill="none" stroke="#000000" stroke-opacity="1" stroke-width="1" stroke-linecap="square" stroke-linejoin="bevel" transform="matrix(0.99449,0,0,0.99449,541.003,138.234)"
font-family="Cantarell" font-size="13.3333" font-weight="400" font-style="normal" 
>
<text fill="#000000" fill-opacity="1" stroke="none" xml:space="preserve" x="4.07813" y="14.5" font-family="Cantarell" font-size="13.3333" font-weight="400" font-style="normal" 
 >on_measureMoveDown(measure : IMeasure*)</text>
</g>

<g fill="none" stroke="#000000" stroke-opacity="1" stroke-width="1" stroke-linecap="square" stroke-linejoin="bevel" transform="matrix(0.99449,0,0,0.99449,541.003,138.234)"
font-family="Cantarell" font-size="13.3333" font-weight="400" font-style="normal" 
>
</g>

<g fill="none" stroke="#000000" stroke-opacity="1" stroke-width="1" stroke-linecap="square" stroke-linejoin="bevel" transform="matrix(0.99449,0,0,0.99449,872.168,186.964)"
font-family="Cantarell" font-size="13.3333" font-weight="400" font-style="normal" 
>
</g>

<g fill="none" stroke="#000000" stroke-opacity="1" stroke-width="1" stroke-linecap="square" stroke-linejoin="bevel" transform="matrix(0.99449,0,0,0.99449,872.168,186.964)"
font-family="Cantarell" font-size="13.3333" font-weight="400" font-style="normal" 
>
</g>

<g fill="none" stroke="#000000" stroke-opacity="1" stroke-width="1" stroke-linecap="square" stroke-linejoin="bevel" transform="matrix(0.99449,0,0,0.99449,872.168,186.964)"
font-family="Cantarell" font-size="13.3333" font-weight="400" font-style="normal" 
>
<text fill="#000000" fill-opacity="1" stroke="none" xml:space="preserve" x="4" y="14.5" font-family="Cantarell" font-size="13.3333" font-weight="400" font-style="normal" 
 >notifyMeasureMoveDown(measure : IMeasure*)</text>
</g>

<g fill="none" stroke="#000000" stroke-opacity="1" stroke-width="1" stroke-linecap="square" stroke-linejoin="bevel" transform="matrix(0.99449,0,0,0.99449,872.168,186.964)"
font-family="Cantarell" font-size="13.3333" font-weight="400" font-style="normal" 
>
</g>

<g fill="none" stroke="#000000" stroke-opacity="1" stroke-width="1" stroke-linecap="square" stroke-linejoin="bevel" transform="matrix(1,0,0,1,0,0)"
font-family="Cantarell" font-size="13.3333" font-weight="400" font-style="normal" 
>
</g>
</g>
</svg>
