<?xml version="1.0" encoding="UTF-8" standalone="no"?>
<svg width="314.854mm" height="166.952mm"
 viewBox="0 0 1189 631"
 xmlns="http://www.w3.org/2000/svg" xmlns:xlink="http://www.w3.org/1999/xlink"  version="1.2" baseProfile="tiny">
<title>Qt SVG Document</title>
<desc>Generated with Qt</desc>
<defs>
</defs>
<g fill="none" stroke="black" stroke-width="1" fill-rule="evenodd" stroke-linecap="square" stroke-linejoin="bevel" >

<g fill="none" stroke="#000000" stroke-opacity="1" stroke-width="1" stroke-linecap="square" stroke-linejoin="bevel" transform="matrix(1,0,0,1,0,0)"
font-family="Cantarell" font-size="13.3333" font-weight="400" font-style="normal" 
>
</g>

<g fill="none" stroke="#000000" stroke-opacity="1" stroke-width="1" stroke-linecap="square" stroke-linejoin="bevel" transform="matrix(1,0,0,1,0,0)"
font-family="Cantarell" font-size="13.3333" font-weight="400" font-style="normal" 
>
</g>

<g fill="none" stroke="#000000" stroke-opacity="1" stroke-width="1" stroke-linecap="square" stroke-linejoin="bevel" transform="matrix(0.99684,0,0,0.99684,1786.34,-78.7504)"
font-family="Cantarell" font-size="13.3333" font-weight="400" font-style="normal" 
>
</g>

<g fill="#ffffff" fill-opacity="1" stroke="none" transform="matrix(0.99684,0,0,0.99684,1786.34,-78.7504)"
font-family="Cantarell" font-size="13.3333" font-weight="400" font-style="normal" 
>
<rect x="-1792" y="79" width="1191.5" height="633"/>
</g>

<g fill="none" stroke="#000000" stroke-opacity="1" stroke-width="1" stroke-linecap="square" stroke-linejoin="bevel" transform="matrix(0.99684,0,0,0.99684,1786.34,-78.7504)"
font-family="Cantarell" font-size="13.3333" font-weight="400" font-style="normal" 
>
</g>

<g fill="none" stroke="#000000" stroke-opacity="1" stroke-width="1" stroke-linecap="square" stroke-linejoin="bevel" transform="matrix(0.99684,0,0,0.99684,683.833,376.806)"
font-family="Cantarell" font-size="13.3333" font-weight="400" font-style="normal" 
>
</g>

<g fill="none" stroke="#ff0000" stroke-opacity="1" stroke-width="1" stroke-linecap="square" stroke-linejoin="bevel" transform="matrix(0.99684,0,0,0.99684,683.833,376.806)"
font-family="Cantarell" font-size="13.3333" font-weight="400" font-style="normal" 
>
<rect vector-effect="non-scaling-stroke" x="0" y="0" width="502" height="82"/>
</g>

<g fill="none" stroke="#000000" stroke-opacity="1" stroke-width="1" stroke-linecap="square" stroke-linejoin="bevel" transform="matrix(0.99684,0,0,0.99684,683.833,376.806)"
font-family="Cantarell" font-size="13.3333" font-weight="400" font-style="normal" 
>
</g>

<g fill="none" stroke="#000000" stroke-opacity="1" stroke-width="1" stroke-linecap="square" stroke-linejoin="bevel" transform="matrix(0.99684,0,0,0.99684,683.833,376.806)"
font-family="Cantarell" font-size="13.3333" font-weight="400" font-style="normal" 
>
</g>

<g fill="none" stroke="#000000" stroke-opacity="1" stroke-width="1" stroke-linecap="square" stroke-linejoin="bevel" transform="matrix(0.99684,0,0,0.99684,683.833,376.806)"
font-family="Cantarell" font-size="13.3333" font-weight="400" font-style="normal" 
>
<text fill="#000000" fill-opacity="1" stroke="none" xml:space="preserve" x="5" y="33" font-family="Cantarell" font-size="13.3333" font-weight="400" font-style="normal" 
 >[currentMeasure != NULL]</text>
</g>

<g fill="none" stroke="#000000" stroke-opacity="1" stroke-width="1" stroke-linecap="square" stroke-linejoin="bevel" transform="matrix(0.99684,0,0,0.99684,683.833,376.806)"
font-family="Cantarell" font-size="13.3333" font-weight="400" font-style="normal" 
>
</g>

<g fill="none" stroke="#000000" stroke-opacity="1" stroke-width="1" stroke-linecap="square" stroke-linejoin="bevel" transform="matrix(1,0,0,1,0,0)"
font-family="Cantarell" font-size="13.3333" font-weight="400" font-style="normal" 
>
</g>

<g fill="none" stroke="#000000" stroke-opacity="1" stroke-width="1" stroke-linecap="square" stroke-linejoin="bevel" transform="matrix(0.99684,0,0,0.99684,683.833,376.806)"
font-family="Cantarell" font-size="13.3333" font-weight="400" font-style="normal" 
>
</g>

<g fill="none" stroke="#000000" stroke-opacity="1" stroke-width="1" stroke-linecap="square" stroke-linejoin="bevel" transform="matrix(0.99684,0,0,0.99684,683.833,376.806)"
font-family="Cantarell" font-size="13.3333" font-weight="400" font-style="normal" 
>
</g>

<g fill="none" stroke="#000000" stroke-opacity="1" stroke-width="1" stroke-linecap="square" stroke-linejoin="bevel" transform="matrix(0.99684,0,0,0.99684,683.833,376.806)"
font-family="Cantarell" font-size="13.3333" font-weight="400" font-style="normal" 
>
<text fill="#000000" fill-opacity="1" stroke="none" xml:space="preserve" x="5" y="13" font-family="Cantarell" font-size="13.3333" font-weight="400" font-style="normal" 
 >alt</text>
</g>

<g fill="none" stroke="#000000" stroke-opacity="1" stroke-width="1" stroke-linecap="square" stroke-linejoin="bevel" transform="matrix(0.99684,0,0,0.99684,683.833,376.806)"
font-family="Cantarell" font-size="13.3333" font-weight="400" font-style="normal" 
>
</g>

<g fill="none" stroke="#000000" stroke-opacity="1" stroke-width="1" stroke-linecap="square" stroke-linejoin="bevel" transform="matrix(1,0,0,1,0,0)"
font-family="Cantarell" font-size="13.3333" font-weight="400" font-style="normal" 
>
</g>

<g fill="none" stroke="#000000" stroke-opacity="1" stroke-width="1" stroke-linecap="square" stroke-linejoin="bevel" transform="matrix(0.99684,0,0,0.99684,683.833,376.806)"
font-family="Cantarell" font-size="13.3333" font-weight="400" font-style="normal" 
>
</g>

<g fill="none" stroke="#ff0000" stroke-opacity="1" stroke-width="1" stroke-linecap="square" stroke-linejoin="bevel" transform="matrix(0.99684,0,0,0.99684,683.833,376.806)"
font-family="Cantarell" font-size="13.3333" font-weight="400" font-style="normal" 
>
<polyline fill="none" vector-effect="non-scaling-stroke" points="0,20 45,20 " />
<polyline fill="none" vector-effect="non-scaling-stroke" points="45,20 55,10 " />
<polyline fill="none" vector-effect="non-scaling-stroke" points="55,10 55,0 " />
</g>

<g fill="none" stroke="#000000" stroke-opacity="1" stroke-width="1" stroke-linecap="square" stroke-linejoin="bevel" transform="matrix(0.99684,0,0,0.99684,683.833,376.806)"
font-family="Cantarell" font-size="13.3333" font-weight="400" font-style="normal" 
>
</g>

<g fill="none" stroke="#000000" stroke-opacity="1" stroke-width="1" stroke-linecap="square" stroke-linejoin="bevel" transform="matrix(0.99684,0,0,0.99684,1786.34,-78.7504)"
font-family="Cantarell" font-size="13.3333" font-weight="400" font-style="normal" 
>
</g>

<g fill="none" stroke="#ff0000" stroke-opacity="1" stroke-dasharray="4,2" stroke-dashoffset="0" stroke-width="1" stroke-linecap="square" stroke-linejoin="bevel" transform="matrix(0.99684,0,0,0.99684,1786.34,-78.7504)"
font-family="Cantarell" font-size="13.3333" font-weight="400" font-style="normal" 
>
<polyline fill="none" vector-effect="non-scaling-stroke" points="-1492,106 -1492,675 " />
</g>

<g fill="none" stroke="#000000" stroke-opacity="1" stroke-width="1" stroke-linecap="square" stroke-linejoin="bevel" transform="matrix(0.99684,0,0,0.99684,1786.34,-78.7504)"
font-family="Cantarell" font-size="13.3333" font-weight="400" font-style="normal" 
>
</g>

<g fill="none" stroke="#000000" stroke-opacity="1" stroke-width="1" stroke-linecap="square" stroke-linejoin="bevel" transform="matrix(0.99684,0,0,0.99684,1786.34,-78.7504)"
font-family="Cantarell" font-size="13.3333" font-weight="400" font-style="normal" 
>
</g>

<g fill="none" stroke="#ff0000" stroke-opacity="1" stroke-dasharray="4,2" stroke-dashoffset="0" stroke-width="1" stroke-linecap="square" stroke-linejoin="bevel" transform="matrix(0.99684,0,0,0.99684,1786.34,-78.7504)"
font-family="Cantarell" font-size="13.3333" font-weight="400" font-style="normal" 
>
<polyline fill="none" vector-effect="non-scaling-stroke" points="-1765,141 -1765,465 " />
</g>

<g fill="none" stroke="#000000" stroke-opacity="1" stroke-width="1" stroke-linecap="square" stroke-linejoin="bevel" transform="matrix(0.99684,0,0,0.99684,1786.34,-78.7504)"
font-family="Cantarell" font-size="13.3333" font-weight="400" font-style="normal" 
>
</g>

<g fill="none" stroke="#000000" stroke-opacity="1" stroke-width="1" stroke-linecap="square" stroke-linejoin="bevel" transform="matrix(0.99684,0,0,0.99684,86.7251,83.7346)"
font-family="Cantarell" font-size="13.3333" font-weight="400" font-style="normal" 
>
</g>

<g fill="none" stroke="#000000" stroke-opacity="1" stroke-width="1" stroke-linecap="square" stroke-linejoin="bevel" transform="matrix(0.99684,0,0,0.99684,86.7251,83.7346)"
font-family="Cantarell" font-size="13.3333" font-weight="400" font-style="normal" 
>
</g>

<g fill="none" stroke="#000000" stroke-opacity="1" stroke-width="1" stroke-linecap="square" stroke-linejoin="bevel" transform="matrix(0.99684,0,0,0.99684,86.7251,83.7346)"
font-family="Cantarell" font-size="13.3333" font-weight="400" font-style="normal" 
>
<text fill="#000000" fill-opacity="1" stroke="none" xml:space="preserve" x="4.03125" y="14.5" font-family="Cantarell" font-size="13.3333" font-weight="400" font-style="normal" 
 >startMetronome()</text>
</g>

<g fill="none" stroke="#000000" stroke-opacity="1" stroke-width="1" stroke-linecap="square" stroke-linejoin="bevel" transform="matrix(0.99684,0,0,0.99684,86.7251,83.7346)"
font-family="Cantarell" font-size="13.3333" font-weight="400" font-style="normal" 
>
</g>

<g fill="none" stroke="#000000" stroke-opacity="1" stroke-width="1" stroke-linecap="square" stroke-linejoin="bevel" transform="matrix(0.99684,0,0,0.99684,1786.34,-78.7504)"
font-family="Cantarell" font-size="13.3333" font-weight="400" font-style="normal" 
>
</g>

<g fill="none" stroke="#ff0000" stroke-opacity="1" stroke-dasharray="4,2" stroke-dashoffset="0" stroke-width="1" stroke-linecap="square" stroke-linejoin="bevel" transform="matrix(0.99684,0,0,0.99684,1786.34,-78.7504)"
font-family="Cantarell" font-size="13.3333" font-weight="400" font-style="normal" 
>
<polyline fill="none" vector-effect="non-scaling-stroke" points="-912,117 -912,711 " />
</g>

<g fill="none" stroke="#000000" stroke-opacity="1" stroke-width="1" stroke-linecap="square" stroke-linejoin="bevel" transform="matrix(0.99684,0,0,0.99684,1786.34,-78.7504)"
font-family="Cantarell" font-size="13.3333" font-weight="400" font-style="normal" 
>
</g>

<g fill="none" stroke="#000000" stroke-opacity="1" stroke-width="1" stroke-linecap="square" stroke-linejoin="bevel" transform="matrix(0.99684,0,0,0.99684,799.466,0.99684)"
font-family="Cantarell" font-size="13.3333" font-weight="400" font-style="normal" 
>
</g>

<g fill="#ffff00" fill-opacity="1" stroke="#ff0000" stroke-opacity="1" stroke-width="1" stroke-linecap="square" stroke-linejoin="bevel" transform="matrix(0.99684,0,0,0.99684,799.466,0.99684)"
font-family="Cantarell" font-size="13.3333" font-weight="400" font-style="normal" 
>
<rect vector-effect="non-scaling-stroke" x="0" y="0" width="156" height="37"/>
</g>

<g fill="#ffff00" fill-opacity="1" stroke="#000000" stroke-opacity="1" stroke-width="1" stroke-linecap="square" stroke-linejoin="bevel" transform="matrix(0.99684,0,0,0.99684,799.466,0.99684)"
font-family="Cantarell" font-size="13.3333" font-weight="400" font-style="normal" 
>
</g>

<g fill="#ffff00" fill-opacity="1" stroke="#000000" stroke-opacity="1" stroke-width="1" stroke-linecap="square" stroke-linejoin="bevel" transform="matrix(0.99684,0,0,0.99684,799.466,0.99684)"
font-family="Cantarell" font-size="13.3333" font-weight="400" font-style="normal" 
>
<text fill="#000000" fill-opacity="1" stroke="none" xml:space="preserve" x="5.04688" y="23" font-family="Cantarell" font-size="13.3333" font-weight="400" font-style="normal" 
 >metronome : IMetronome</text>
</g>

<g fill="#ffff00" fill-opacity="1" stroke="#000000" stroke-opacity="1" stroke-width="1" stroke-linecap="butt" stroke-linejoin="bevel" transform="matrix(0.99684,0,0,0.99684,799.466,0.99684)"
font-family="Cantarell" font-size="13.3333" font-weight="400" font-style="normal" 
>
<polyline fill="none" vector-effect="none" points="5,25.5 150,25.5 " />
</g>

<g fill="none" stroke="#000000" stroke-opacity="1" stroke-width="1" stroke-linecap="square" stroke-linejoin="bevel" transform="matrix(0.99684,0,0,0.99684,799.466,0.99684)"
font-family="Cantarell" font-size="13.3333" font-weight="400" font-style="normal" 
>
</g>

<g fill="none" stroke="#000000" stroke-opacity="1" stroke-width="1" stroke-linecap="square" stroke-linejoin="bevel" transform="matrix(0.99684,0,0,0.99684,1786.34,-78.7504)"
font-family="Cantarell" font-size="13.3333" font-weight="400" font-style="normal" 
>
</g>

<g fill="none" stroke="#ff0000" stroke-opacity="1" stroke-dasharray="4,2" stroke-dashoffset="0" stroke-width="1" stroke-linecap="square" stroke-linejoin="bevel" transform="matrix(0.99684,0,0,0.99684,1786.34,-78.7504)"
font-family="Cantarell" font-size="13.3333" font-weight="400" font-style="normal" 
>
<polyline fill="none" vector-effect="non-scaling-stroke" points="-1215,106 -1215,711 " />
</g>

<g fill="none" stroke="#000000" stroke-opacity="1" stroke-width="1" stroke-linecap="square" stroke-linejoin="bevel" transform="matrix(0.99684,0,0,0.99684,1786.34,-78.7504)"
font-family="Cantarell" font-size="13.3333" font-weight="400" font-style="normal" 
>
</g>

<g fill="none" stroke="#000000" stroke-opacity="1" stroke-width="1" stroke-linecap="square" stroke-linejoin="bevel" transform="matrix(0.99684,0,0,0.99684,522.344,0.99684)"
font-family="Cantarell" font-size="13.3333" font-weight="400" font-style="normal" 
>
</g>

<g fill="#ffff00" fill-opacity="1" stroke="#ff0000" stroke-opacity="1" stroke-width="1" stroke-linecap="square" stroke-linejoin="bevel" transform="matrix(0.99684,0,0,0.99684,522.344,0.99684)"
font-family="Cantarell" font-size="13.3333" font-weight="400" font-style="normal" 
>
<rect vector-effect="non-scaling-stroke" x="0" y="0" width="105" height="26"/>
</g>

<g fill="#ffff00" fill-opacity="1" stroke="#000000" stroke-opacity="1" stroke-width="1" stroke-linecap="square" stroke-linejoin="bevel" transform="matrix(0.99684,0,0,0.99684,522.344,0.99684)"
font-family="Cantarell" font-size="13.3333" font-weight="400" font-style="normal" 
>
</g>

<g fill="#ffff00" fill-opacity="1" stroke="#000000" stroke-opacity="1" stroke-width="1" stroke-linecap="square" stroke-linejoin="bevel" transform="matrix(0.99684,0,0,0.99684,522.344,0.99684)"
font-family="Cantarell" font-size="13.3333" font-weight="400" font-style="normal" 
>
</g>

<g fill="#ffff00" fill-opacity="1" stroke="#000000" stroke-opacity="1" stroke-width="1" stroke-linecap="square" stroke-linejoin="bevel" transform="matrix(0.99684,0,0,0.99684,522.344,0.99684)"
font-family="Cantarell" font-size="13.3333" font-weight="400" font-style="normal" 
>
<text fill="#000000" fill-opacity="1" stroke="none" xml:space="preserve" x="4.76563" y="17.5" font-family="Cantarell" font-size="13.3333" font-weight="400" font-style="normal" 
 >m : MainWindow</text>
</g>

<g fill="#ffff00" fill-opacity="1" stroke="#000000" stroke-opacity="1" stroke-width="1" stroke-linecap="butt" stroke-linejoin="bevel" transform="matrix(0.99684,0,0,0.99684,522.344,0.99684)"
font-family="Cantarell" font-size="13.3333" font-weight="400" font-style="normal" 
>
<polyline fill="none" vector-effect="none" points="4,20 100,20 " />
</g>

<g fill="#ffff00" fill-opacity="1" stroke="#000000" stroke-opacity="1" stroke-width="1" stroke-linecap="square" stroke-linejoin="bevel" transform="matrix(0.99684,0,0,0.99684,522.344,0.99684)"
font-family="Cantarell" font-size="13.3333" font-weight="400" font-style="normal" 
>
</g>

<g fill="#ffff00" fill-opacity="1" stroke="#000000" stroke-opacity="1" stroke-width="1" stroke-linecap="square" stroke-linejoin="bevel" transform="matrix(1,0,0,1,0,0)"
font-family="Cantarell" font-size="13.3333" font-weight="400" font-style="normal" 
>
</g>

<g fill="#ffff00" fill-opacity="1" stroke="#000000" stroke-opacity="1" stroke-width="1" stroke-linecap="square" stroke-linejoin="bevel" transform="matrix(0.99684,0,0,0.99684,522.344,0.99684)"
font-family="Cantarell" font-size="13.3333" font-weight="400" font-style="normal" 
>
</g>

<g fill="none" stroke="#000000" stroke-opacity="1" stroke-width="1" stroke-linecap="square" stroke-linejoin="bevel" transform="matrix(0.99684,0,0,0.99684,522.344,0.99684)"
font-family="Cantarell" font-size="13.3333" font-weight="400" font-style="normal" 
>
</g>

<g fill="none" stroke="#000000" stroke-opacity="1" stroke-width="1" stroke-linecap="square" stroke-linejoin="bevel" transform="matrix(0.99684,0,0,0.99684,583.152,273.134)"
font-family="Cantarell" font-size="13.3333" font-weight="400" font-style="normal" 
>
</g>

<g fill="none" stroke="#000000" stroke-opacity="1" stroke-width="1" stroke-linecap="square" stroke-linejoin="bevel" transform="matrix(0.99684,0,0,0.99684,583.152,273.134)"
font-family="Cantarell" font-size="13.3333" font-weight="400" font-style="normal" 
>
</g>

<g fill="none" stroke="#000000" stroke-opacity="1" stroke-width="1" stroke-linecap="square" stroke-linejoin="bevel" transform="matrix(0.99684,0,0,0.99684,583.152,273.134)"
font-family="Cantarell" font-size="13.3333" font-weight="400" font-style="normal" 
>
<text fill="#000000" fill-opacity="1" stroke="none" xml:space="preserve" x="3.75" y="14.5" font-family="Cantarell" font-size="13.3333" font-weight="400" font-style="normal" 
 >start(preMetronomeTicks : bool = false)</text>
</g>

<g fill="none" stroke="#000000" stroke-opacity="1" stroke-width="1" stroke-linecap="square" stroke-linejoin="bevel" transform="matrix(0.99684,0,0,0.99684,583.152,273.134)"
font-family="Cantarell" font-size="13.3333" font-weight="400" font-style="normal" 
>
</g>

<g fill="none" stroke="#000000" stroke-opacity="1" stroke-width="1" stroke-linecap="square" stroke-linejoin="bevel" transform="matrix(0.99684,0,0,0.99684,268.15,0.99684)"
font-family="Cantarell" font-size="13.3333" font-weight="400" font-style="normal" 
>
</g>

<g fill="#ffff00" fill-opacity="1" stroke="#ff0000" stroke-opacity="1" stroke-width="1" stroke-linecap="square" stroke-linejoin="bevel" transform="matrix(0.99684,0,0,0.99684,268.15,0.99684)"
font-family="Cantarell" font-size="13.3333" font-weight="400" font-style="normal" 
>
<rect vector-effect="non-scaling-stroke" x="0" y="0" width="62" height="26"/>
</g>

<g fill="#ffff00" fill-opacity="1" stroke="#000000" stroke-opacity="1" stroke-width="1" stroke-linecap="square" stroke-linejoin="bevel" transform="matrix(0.99684,0,0,0.99684,268.15,0.99684)"
font-family="Cantarell" font-size="13.3333" font-weight="400" font-style="normal" 
>
</g>

<g fill="#ffff00" fill-opacity="1" stroke="#000000" stroke-opacity="1" stroke-width="1" stroke-linecap="square" stroke-linejoin="bevel" transform="matrix(0.99684,0,0,0.99684,268.15,0.99684)"
font-family="Cantarell" font-size="13.3333" font-weight="400" font-style="normal" 
>
</g>

<g fill="#ffff00" fill-opacity="1" stroke="#000000" stroke-opacity="1" stroke-width="1" stroke-linecap="square" stroke-linejoin="bevel" transform="matrix(0.99684,0,0,0.99684,268.15,0.99684)"
font-family="Cantarell" font-size="13.3333" font-weight="400" font-style="normal" 
>
<text fill="#000000" fill-opacity="1" stroke="none" xml:space="preserve" x="4.85938" y="17.5" font-family="Cantarell" font-size="13.3333" font-weight="400" font-style="normal" 
 > : System</text>
</g>

<g fill="#ffff00" fill-opacity="1" stroke="#000000" stroke-opacity="1" stroke-width="1" stroke-linecap="butt" stroke-linejoin="bevel" transform="matrix(0.99684,0,0,0.99684,268.15,0.99684)"
font-family="Cantarell" font-size="13.3333" font-weight="400" font-style="normal" 
>
<polyline fill="none" vector-effect="none" points="4,20 57,20 " />
</g>

<g fill="#ffff00" fill-opacity="1" stroke="#000000" stroke-opacity="1" stroke-width="1" stroke-linecap="square" stroke-linejoin="bevel" transform="matrix(0.99684,0,0,0.99684,268.15,0.99684)"
font-family="Cantarell" font-size="13.3333" font-weight="400" font-style="normal" 
>
</g>

<g fill="#ffff00" fill-opacity="1" stroke="#000000" stroke-opacity="1" stroke-width="1" stroke-linecap="square" stroke-linejoin="bevel" transform="matrix(1,0,0,1,0,0)"
font-family="Cantarell" font-size="13.3333" font-weight="400" font-style="normal" 
>
</g>

<g fill="#ffff00" fill-opacity="1" stroke="#000000" stroke-opacity="1" stroke-width="1" stroke-linecap="square" stroke-linejoin="bevel" transform="matrix(0.99684,0,0,0.99684,268.15,0.99684)"
font-family="Cantarell" font-size="13.3333" font-weight="400" font-style="normal" 
>
</g>

<g fill="none" stroke="#000000" stroke-opacity="1" stroke-width="1" stroke-linecap="square" stroke-linejoin="bevel" transform="matrix(0.99684,0,0,0.99684,268.15,0.99684)"
font-family="Cantarell" font-size="13.3333" font-weight="400" font-style="normal" 
>
</g>

<g fill="none" stroke="#000000" stroke-opacity="1" stroke-width="1" stroke-linecap="square" stroke-linejoin="bevel" transform="matrix(0.99684,0,0,0.99684,0.99684,0.99684)"
font-family="Cantarell" font-size="13.3333" font-weight="400" font-style="normal" 
>
</g>

<g fill="#ffff00" fill-opacity="1" stroke="#ff0000" stroke-opacity="1" stroke-width="1" stroke-linecap="square" stroke-linejoin="bevel" transform="matrix(0.99684,0,0,0.99684,0.99684,0.99684)"
font-family="Cantarell" font-size="13.3333" font-weight="400" font-style="normal" 
>
<ellipse vector-effect="non-scaling-stroke" cx="25" cy="6.5" rx="10" ry="6.5"/>
<polyline fill="none" vector-effect="non-scaling-stroke" points="25,13 25,26 " />
<polyline fill="none" vector-effect="non-scaling-stroke" points="25,26 15,40 " />
<polyline fill="none" vector-effect="non-scaling-stroke" points="25,26 35,40 " />
<polyline fill="none" vector-effect="non-scaling-stroke" points="15,19 35,19 " />
</g>

<g fill="#ffff00" fill-opacity="1" stroke="#000000" stroke-opacity="1" stroke-width="1" stroke-linecap="square" stroke-linejoin="bevel" transform="matrix(0.99684,0,0,0.99684,0.99684,0.99684)"
font-family="Cantarell" font-size="13.3333" font-weight="400" font-style="normal" 
>
</g>

<g fill="#ffff00" fill-opacity="1" stroke="#000000" stroke-opacity="1" stroke-width="1" stroke-linecap="square" stroke-linejoin="bevel" transform="matrix(0.99684,0,0,0.99684,0.99684,0.99684)"
font-family="Cantarell" font-size="13.3333" font-weight="400" font-style="normal" 
>
</g>

<g fill="#ffff00" fill-opacity="1" stroke="#000000" stroke-opacity="1" stroke-width="1" stroke-linecap="square" stroke-linejoin="bevel" transform="matrix(0.99684,0,0,0.99684,0.99684,0.99684)"
font-family="Cantarell" font-size="13.3333" font-weight="400" font-style="normal" 
>
<text fill="#000000" fill-opacity="1" stroke="none" xml:space="preserve" x="4.92188" y="57.5" font-family="Cantarell" font-size="13.3333" font-weight="400" font-style="normal" 
 > : Actor</text>
</g>

<g fill="#ffff00" fill-opacity="1" stroke="#000000" stroke-opacity="1" stroke-width="1" stroke-linecap="square" stroke-linejoin="bevel" transform="matrix(0.99684,0,0,0.99684,0.99684,0.99684)"
font-family="Cantarell" font-size="13.3333" font-weight="400" font-style="normal" 
>
</g>

<g fill="#ffff00" fill-opacity="1" stroke="#000000" stroke-opacity="1" stroke-width="1" stroke-linecap="square" stroke-linejoin="bevel" transform="matrix(1,0,0,1,0,0)"
font-family="Cantarell" font-size="13.3333" font-weight="400" font-style="normal" 
>
</g>

<g fill="#ffff00" fill-opacity="1" stroke="#000000" stroke-opacity="1" stroke-width="1" stroke-linecap="square" stroke-linejoin="bevel" transform="matrix(0.99684,0,0,0.99684,0.99684,0.99684)"
font-family="Cantarell" font-size="13.3333" font-weight="400" font-style="normal" 
>
</g>

<g fill="none" stroke="#000000" stroke-opacity="1" stroke-width="1" stroke-linecap="square" stroke-linejoin="bevel" transform="matrix(0.99684,0,0,0.99684,0.99684,0.99684)"
font-family="Cantarell" font-size="13.3333" font-weight="400" font-style="normal" 
>
</g>

<g fill="none" stroke="#000000" stroke-opacity="1" stroke-width="1" stroke-linecap="square" stroke-linejoin="bevel" transform="matrix(0.99684,0,0,0.99684,575.177,142.548)"
font-family="Cantarell" font-size="13.3333" font-weight="400" font-style="normal" 
>
</g>

<g fill="#ffffff" fill-opacity="1" stroke="none" transform="matrix(0.99684,0,0,0.99684,575.177,142.548)"
font-family="Cantarell" font-size="13.3333" font-weight="400" font-style="normal" 
>
<rect x="294" y="0" width="17" height="20"/>
</g>

<g fill="#ffff00" fill-opacity="1" stroke="#ff0000" stroke-opacity="1" stroke-width="1" stroke-linecap="square" stroke-linejoin="bevel" transform="matrix(0.99684,0,0,0.99684,575.177,142.548)"
font-family="Cantarell" font-size="13.3333" font-weight="400" font-style="normal" 
>
<rect vector-effect="non-scaling-stroke" x="294" y="0" width="17" height="20"/>
<polyline fill="none" vector-effect="non-scaling-stroke" points="8,4 294,4 " />
</g>

<g fill="#ff0000" fill-opacity="1" stroke="#ff0000" stroke-opacity="1" stroke-width="1" stroke-linecap="square" stroke-linejoin="bevel" transform="matrix(0.99684,0,0,0.99684,575.177,142.548)"
font-family="Cantarell" font-size="13.3333" font-weight="400" font-style="normal" 
>
<path vector-effect="non-scaling-stroke" fill-rule="evenodd" d="M293,4 L289,1 L289,7 L293,4"/>
<polyline fill="none" vector-effect="non-scaling-stroke" points="8,17 12,14 " />
<polyline fill="none" vector-effect="non-scaling-stroke" points="8,17 12,20 " />
</g>

<g fill="#ff0000" fill-opacity="1" stroke="#ff0000" stroke-opacity="1" stroke-dasharray="1,2" stroke-dashoffset="0" stroke-width="1" stroke-linecap="square" stroke-linejoin="bevel" transform="matrix(0.99684,0,0,0.99684,575.177,142.548)"
font-family="Cantarell" font-size="13.3333" font-weight="400" font-style="normal" 
>
<polyline fill="none" vector-effect="non-scaling-stroke" points="8,17 294,17 " />
</g>

<g fill="none" stroke="#000000" stroke-opacity="1" stroke-width="1" stroke-linecap="square" stroke-linejoin="bevel" transform="matrix(0.99684,0,0,0.99684,575.177,142.548)"
font-family="Cantarell" font-size="13.3333" font-weight="400" font-style="normal" 
>
</g>

<g fill="none" stroke="#000000" stroke-opacity="1" stroke-width="1" stroke-linecap="square" stroke-linejoin="bevel" transform="matrix(0.99684,0,0,0.99684,414.686,98.6872)"
font-family="Cantarell" font-size="13.3333" font-weight="400" font-style="normal" 
>
</g>

<g fill="none" stroke="#000000" stroke-opacity="1" stroke-width="1" stroke-linecap="square" stroke-linejoin="bevel" transform="matrix(0.99684,0,0,0.99684,414.686,98.6872)"
font-family="Cantarell" font-size="13.3333" font-weight="400" font-style="normal" 
>
</g>

<g fill="none" stroke="#000000" stroke-opacity="1" stroke-width="1" stroke-linecap="square" stroke-linejoin="bevel" transform="matrix(0.99684,0,0,0.99684,414.686,98.6872)"
font-family="Cantarell" font-size="13.3333" font-weight="400" font-style="normal" 
>
<text fill="#000000" fill-opacity="1" stroke="none" xml:space="preserve" x="4.14063" y="14.5" font-family="Cantarell" font-size="13.3333" font-weight="400" font-style="normal" 
 >on_actionPlay_triggered()</text>
</g>

<g fill="none" stroke="#000000" stroke-opacity="1" stroke-width="1" stroke-linecap="square" stroke-linejoin="bevel" transform="matrix(0.99684,0,0,0.99684,414.686,98.6872)"
font-family="Cantarell" font-size="13.3333" font-weight="400" font-style="normal" 
>
</g>

<g fill="none" stroke="#000000" stroke-opacity="1" stroke-width="1" stroke-linecap="square" stroke-linejoin="bevel" transform="matrix(0.99684,0,0,0.99684,600.098,122.611)"
font-family="Cantarell" font-size="13.3333" font-weight="400" font-style="normal" 
>
</g>

<g fill="none" stroke="#000000" stroke-opacity="1" stroke-width="1" stroke-linecap="square" stroke-linejoin="bevel" transform="matrix(0.99684,0,0,0.99684,600.098,122.611)"
font-family="Cantarell" font-size="13.3333" font-weight="400" font-style="normal" 
>
</g>

<g fill="none" stroke="#000000" stroke-opacity="1" stroke-width="1" stroke-linecap="square" stroke-linejoin="bevel" transform="matrix(0.99684,0,0,0.99684,600.098,122.611)"
font-family="Cantarell" font-size="13.3333" font-weight="400" font-style="normal" 
>
<text fill="#000000" fill-opacity="1" stroke="none" xml:space="preserve" x="4.10938" y="14.5" font-family="Cantarell" font-size="13.3333" font-weight="400" font-style="normal" 
 >setupPreMetronome(bpm : int, ticks : int)</text>
</g>

<g fill="none" stroke="#000000" stroke-opacity="1" stroke-width="1" stroke-linecap="square" stroke-linejoin="bevel" transform="matrix(0.99684,0,0,0.99684,600.098,122.611)"
font-family="Cantarell" font-size="13.3333" font-weight="400" font-style="normal" 
>
</g>

<g fill="none" stroke="#000000" stroke-opacity="1" stroke-width="1" stroke-linecap="square" stroke-linejoin="bevel" transform="matrix(0.99684,0,0,0.99684,880.21,236.251)"
font-family="Cantarell" font-size="13.3333" font-weight="400" font-style="normal" 
>
</g>

<g fill="none" stroke="#000000" stroke-opacity="1" stroke-width="1" stroke-linecap="square" stroke-linejoin="bevel" transform="matrix(0.99684,0,0,0.99684,880.21,236.251)"
font-family="Cantarell" font-size="13.3333" font-weight="400" font-style="normal" 
>
</g>

<g fill="none" stroke="#000000" stroke-opacity="1" stroke-width="1" stroke-linecap="square" stroke-linejoin="bevel" transform="matrix(0.99684,0,0,0.99684,880.21,236.251)"
font-family="Cantarell" font-size="13.3333" font-weight="400" font-style="normal" 
>
<text fill="#000000" fill-opacity="1" stroke="none" xml:space="preserve" x="3.78125" y="14.5" font-family="Cantarell" font-size="13.3333" font-weight="400" font-style="normal" 
 >notifyChangeMeasure(measure : IMeasure*)</text>
</g>

<g fill="none" stroke="#000000" stroke-opacity="1" stroke-width="1" stroke-linecap="square" stroke-linejoin="bevel" transform="matrix(0.99684,0,0,0.99684,880.21,236.251)"
font-family="Cantarell" font-size="13.3333" font-weight="400" font-style="normal" 
>
</g>

<g fill="none" stroke="#000000" stroke-opacity="1" stroke-width="1" stroke-linecap="square" stroke-linejoin="bevel" transform="matrix(0.99684,0,0,0.99684,26.9147,103.671)"
font-family="Cantarell" font-size="13.3333" font-weight="400" font-style="normal" 
>
</g>

<g fill="#ffffff" fill-opacity="1" stroke="none" transform="matrix(0.99684,0,0,0.99684,26.9147,103.671)"
font-family="Cantarell" font-size="13.3333" font-weight="400" font-style="normal" 
>
<rect x="264" y="0" width="17" height="262"/>
</g>

<g fill="#ffff00" fill-opacity="1" stroke="#ff0000" stroke-opacity="1" stroke-width="1" stroke-linecap="square" stroke-linejoin="bevel" transform="matrix(0.99684,0,0,0.99684,26.9147,103.671)"
font-family="Cantarell" font-size="13.3333" font-weight="400" font-style="normal" 
>
<rect vector-effect="non-scaling-stroke" x="264" y="0" width="17" height="262"/>
<polyline fill="none" vector-effect="non-scaling-stroke" points="0,4 264,4 " />
</g>

<g fill="#ff0000" fill-opacity="1" stroke="#ff0000" stroke-opacity="1" stroke-width="1" stroke-linecap="square" stroke-linejoin="bevel" transform="matrix(0.99684,0,0,0.99684,26.9147,103.671)"
font-family="Cantarell" font-size="13.3333" font-weight="400" font-style="normal" 
>
<path vector-effect="non-scaling-stroke" fill-rule="evenodd" d="M263,4 L259,1 L259,7 L263,4"/>
<polyline fill="none" vector-effect="non-scaling-stroke" points="0,259 4,256 " />
<polyline fill="none" vector-effect="non-scaling-stroke" points="0,259 4,262 " />
</g>

<g fill="#ff0000" fill-opacity="1" stroke="#ff0000" stroke-opacity="1" stroke-dasharray="1,2" stroke-dashoffset="0" stroke-width="1" stroke-linecap="square" stroke-linejoin="bevel" transform="matrix(0.99684,0,0,0.99684,26.9147,103.671)"
font-family="Cantarell" font-size="13.3333" font-weight="400" font-style="normal" 
>
<polyline fill="none" vector-effect="non-scaling-stroke" points="0,259 264,259 " />
</g>

<g fill="none" stroke="#000000" stroke-opacity="1" stroke-width="1" stroke-linecap="square" stroke-linejoin="bevel" transform="matrix(0.99684,0,0,0.99684,26.9147,103.671)"
font-family="Cantarell" font-size="13.3333" font-weight="400" font-style="normal" 
>
</g>

<g fill="none" stroke="#000000" stroke-opacity="1" stroke-width="1" stroke-linecap="square" stroke-linejoin="bevel" transform="matrix(0.99684,0,0,0.99684,299.052,118.624)"
font-family="Cantarell" font-size="13.3333" font-weight="400" font-style="normal" 
>
</g>

<g fill="#ffffff" fill-opacity="1" stroke="none" transform="matrix(0.99684,0,0,0.99684,299.052,118.624)"
font-family="Cantarell" font-size="13.3333" font-weight="400" font-style="normal" 
>
<rect x="268" y="0" width="17" height="457"/>
</g>

<g fill="#ffff00" fill-opacity="1" stroke="#ff0000" stroke-opacity="1" stroke-width="1" stroke-linecap="square" stroke-linejoin="bevel" transform="matrix(0.99684,0,0,0.99684,299.052,118.624)"
font-family="Cantarell" font-size="13.3333" font-weight="400" font-style="normal" 
>
<rect vector-effect="non-scaling-stroke" x="268" y="0" width="17" height="457"/>
<polyline fill="none" vector-effect="non-scaling-stroke" points="8,4 268,4 " />
</g>

<g fill="#ff0000" fill-opacity="1" stroke="#ff0000" stroke-opacity="1" stroke-width="1" stroke-linecap="square" stroke-linejoin="bevel" transform="matrix(0.99684,0,0,0.99684,299.052,118.624)"
font-family="Cantarell" font-size="13.3333" font-weight="400" font-style="normal" 
>
<path vector-effect="non-scaling-stroke" fill-rule="evenodd" d="M267,4 L263,1 L263,7 L267,4"/>
<polyline fill="none" vector-effect="non-scaling-stroke" points="8,454 12,451 " />
<polyline fill="none" vector-effect="non-scaling-stroke" points="8,454 12,457 " />
</g>

<g fill="#ff0000" fill-opacity="1" stroke="#ff0000" stroke-opacity="1" stroke-dasharray="1,2" stroke-dashoffset="0" stroke-width="1" stroke-linecap="square" stroke-linejoin="bevel" transform="matrix(0.99684,0,0,0.99684,299.052,118.624)"
font-family="Cantarell" font-size="13.3333" font-weight="400" font-style="normal" 
>
<polyline fill="none" vector-effect="non-scaling-stroke" points="8,454 268,454 " />
</g>

<g fill="none" stroke="#000000" stroke-opacity="1" stroke-width="1" stroke-linecap="square" stroke-linejoin="bevel" transform="matrix(0.99684,0,0,0.99684,299.052,118.624)"
font-family="Cantarell" font-size="13.3333" font-weight="400" font-style="normal" 
>
</g>

<g fill="none" stroke="#000000" stroke-opacity="1" stroke-width="1" stroke-linecap="square" stroke-linejoin="bevel" transform="matrix(0.99684,0,0,0.99684,880.21,302.043)"
font-family="Cantarell" font-size="13.3333" font-weight="400" font-style="normal" 
>
</g>

<g fill="none" stroke="#000000" stroke-opacity="1" stroke-width="1" stroke-linecap="square" stroke-linejoin="bevel" transform="matrix(0.99684,0,0,0.99684,880.21,302.043)"
font-family="Cantarell" font-size="13.3333" font-weight="400" font-style="normal" 
>
</g>

<g fill="none" stroke="#000000" stroke-opacity="1" stroke-width="1" stroke-linecap="square" stroke-linejoin="bevel" transform="matrix(0.99684,0,0,0.99684,880.21,302.043)"
font-family="Cantarell" font-size="13.3333" font-weight="400" font-style="normal" 
>
<text fill="#000000" fill-opacity="1" stroke="none" xml:space="preserve" x="4.10938" y="14.5" font-family="Cantarell" font-size="13.3333" font-weight="400" font-style="normal" 
 >on_timerTick()</text>
</g>

<g fill="none" stroke="#000000" stroke-opacity="1" stroke-width="1" stroke-linecap="square" stroke-linejoin="bevel" transform="matrix(0.99684,0,0,0.99684,880.21,302.043)"
font-family="Cantarell" font-size="13.3333" font-weight="400" font-style="normal" 
>
</g>

<g fill="none" stroke="#000000" stroke-opacity="1" stroke-width="1" stroke-linecap="square" stroke-linejoin="bevel" transform="matrix(0.99684,0,0,0.99684,875.226,256.188)"
font-family="Cantarell" font-size="13.3333" font-weight="400" font-style="normal" 
>
</g>

<g fill="#ffffff" fill-opacity="1" stroke="none" transform="matrix(0.99684,0,0,0.99684,875.226,256.188)"
font-family="Cantarell" font-size="13.3333" font-weight="400" font-style="normal" 
>
<rect x="0" y="0" width="17" height="21"/>
</g>

<g fill="#ffff00" fill-opacity="1" stroke="#ff0000" stroke-opacity="1" stroke-width="1" stroke-linecap="square" stroke-linejoin="bevel" transform="matrix(0.99684,0,0,0.99684,875.226,256.188)"
font-family="Cantarell" font-size="13.3333" font-weight="400" font-style="normal" 
>
<rect vector-effect="non-scaling-stroke" x="0" y="0" width="17" height="21"/>
<polyline fill="none" vector-effect="non-scaling-stroke" points="17,3 141,3 " />
<polyline fill="none" vector-effect="non-scaling-stroke" points="141,3 141,18 " />
<polyline fill="none" vector-effect="non-scaling-stroke" points="17,18 21,15 " />
<polyline fill="none" vector-effect="non-scaling-stroke" points="17,18 21,21 " />
<polyline fill="none" vector-effect="non-scaling-stroke" points="17,18 141,18 " />
</g>

<g fill="none" stroke="#000000" stroke-opacity="1" stroke-width="1" stroke-linecap="square" stroke-linejoin="bevel" transform="matrix(0.99684,0,0,0.99684,875.226,256.188)"
font-family="Cantarell" font-size="13.3333" font-weight="400" font-style="normal" 
>
</g>

<g fill="none" stroke="#000000" stroke-opacity="1" stroke-width="1" stroke-linecap="square" stroke-linejoin="bevel" transform="matrix(0.99684,0,0,0.99684,875.226,321.979)"
font-family="Cantarell" font-size="13.3333" font-weight="400" font-style="normal" 
>
</g>

<g fill="#ffffff" fill-opacity="1" stroke="none" transform="matrix(0.99684,0,0,0.99684,875.226,321.979)"
font-family="Cantarell" font-size="13.3333" font-weight="400" font-style="normal" 
>
<rect x="0" y="0" width="17" height="191"/>
</g>

<g fill="#ffff00" fill-opacity="1" stroke="#ff0000" stroke-opacity="1" stroke-width="1" stroke-linecap="square" stroke-linejoin="bevel" transform="matrix(0.99684,0,0,0.99684,875.226,321.979)"
font-family="Cantarell" font-size="13.3333" font-weight="400" font-style="normal" 
>
<rect vector-effect="non-scaling-stroke" x="0" y="0" width="17" height="191"/>
<polyline fill="none" vector-effect="non-scaling-stroke" points="17,3 49,3 " />
<polyline fill="none" vector-effect="non-scaling-stroke" points="49,3 49,188 " />
<polyline fill="none" vector-effect="non-scaling-stroke" points="17,188 21,185 " />
<polyline fill="none" vector-effect="non-scaling-stroke" points="17,188 21,191 " />
<polyline fill="none" vector-effect="non-scaling-stroke" points="17,188 49,188 " />
</g>

<g fill="none" stroke="#000000" stroke-opacity="1" stroke-width="1" stroke-linecap="square" stroke-linejoin="bevel" transform="matrix(0.99684,0,0,0.99684,875.226,321.979)"
font-family="Cantarell" font-size="13.3333" font-weight="400" font-style="normal" 
>
</g>

<g fill="none" stroke="#000000" stroke-opacity="1" stroke-width="1" stroke-linecap="square" stroke-linejoin="bevel" transform="matrix(0.99684,0,0,0.99684,880.21,338.926)"
font-family="Cantarell" font-size="13.3333" font-weight="400" font-style="normal" 
>
</g>

<g fill="none" stroke="#000000" stroke-opacity="1" stroke-width="1" stroke-linecap="square" stroke-linejoin="bevel" transform="matrix(0.99684,0,0,0.99684,880.21,338.926)"
font-family="Cantarell" font-size="13.3333" font-weight="400" font-style="normal" 
>
</g>

<g fill="none" stroke="#000000" stroke-opacity="1" stroke-width="1" stroke-linecap="square" stroke-linejoin="bevel" transform="matrix(0.99684,0,0,0.99684,880.21,338.926)"
font-family="Cantarell" font-size="13.3333" font-weight="400" font-style="normal" 
>
<text fill="#000000" fill-opacity="1" stroke="none" xml:space="preserve" x="4.01563" y="14.5" font-family="Cantarell" font-size="13.3333" font-weight="400" font-style="normal" 
 >nextMeasure()</text>
</g>

<g fill="none" stroke="#000000" stroke-opacity="1" stroke-width="1" stroke-linecap="square" stroke-linejoin="bevel" transform="matrix(0.99684,0,0,0.99684,880.21,338.926)"
font-family="Cantarell" font-size="13.3333" font-weight="400" font-style="normal" 
>
</g>

<g fill="none" stroke="#000000" stroke-opacity="1" stroke-width="1" stroke-linecap="square" stroke-linejoin="bevel" transform="matrix(0.99684,0,0,0.99684,575.177,293.071)"
font-family="Cantarell" font-size="13.3333" font-weight="400" font-style="normal" 
>
</g>

<g fill="#ffffff" fill-opacity="1" stroke="none" transform="matrix(0.99684,0,0,0.99684,575.177,293.071)"
font-family="Cantarell" font-size="13.3333" font-weight="400" font-style="normal" 
>
<rect x="294" y="0" width="17" height="318"/>
</g>

<g fill="#ffff00" fill-opacity="1" stroke="#ff0000" stroke-opacity="1" stroke-width="1" stroke-linecap="square" stroke-linejoin="bevel" transform="matrix(0.99684,0,0,0.99684,575.177,293.071)"
font-family="Cantarell" font-size="13.3333" font-weight="400" font-style="normal" 
>
<rect vector-effect="non-scaling-stroke" x="294" y="0" width="17" height="318"/>
<polyline fill="none" vector-effect="non-scaling-stroke" points="8,4 294,4 " />
</g>

<g fill="#ff0000" fill-opacity="1" stroke="#ff0000" stroke-opacity="1" stroke-width="1" stroke-linecap="square" stroke-linejoin="bevel" transform="matrix(0.99684,0,0,0.99684,575.177,293.071)"
font-family="Cantarell" font-size="13.3333" font-weight="400" font-style="normal" 
>
<path vector-effect="non-scaling-stroke" fill-rule="evenodd" d="M293,4 L289,1 L289,7 L293,4"/>
<polyline fill="none" vector-effect="non-scaling-stroke" points="8,315 12,312 " />
<polyline fill="none" vector-effect="non-scaling-stroke" points="8,315 12,318 " />
</g>

<g fill="#ff0000" fill-opacity="1" stroke="#ff0000" stroke-opacity="1" stroke-dasharray="1,2" stroke-dashoffset="0" stroke-width="1" stroke-linecap="square" stroke-linejoin="bevel" transform="matrix(0.99684,0,0,0.99684,575.177,293.071)"
font-family="Cantarell" font-size="13.3333" font-weight="400" font-style="normal" 
>
<polyline fill="none" vector-effect="non-scaling-stroke" points="8,315 294,315 " />
</g>

<g fill="none" stroke="#000000" stroke-opacity="1" stroke-width="1" stroke-linecap="square" stroke-linejoin="bevel" transform="matrix(0.99684,0,0,0.99684,575.177,293.071)"
font-family="Cantarell" font-size="13.3333" font-weight="400" font-style="normal" 
>
</g>

<g fill="none" stroke="#000000" stroke-opacity="1" stroke-width="1" stroke-linecap="square" stroke-linejoin="bevel" transform="matrix(0.99684,0,0,0.99684,875.226,413.689)"
font-family="Cantarell" font-size="13.3333" font-weight="400" font-style="normal" 
>
</g>

<g fill="#ffffff" fill-opacity="1" stroke="none" transform="matrix(0.99684,0,0,0.99684,875.226,413.689)"
font-family="Cantarell" font-size="13.3333" font-weight="400" font-style="normal" 
>
<rect x="0" y="0" width="17" height="21"/>
</g>

<g fill="#ffff00" fill-opacity="1" stroke="#ff0000" stroke-opacity="1" stroke-width="1" stroke-linecap="square" stroke-linejoin="bevel" transform="matrix(0.99684,0,0,0.99684,875.226,413.689)"
font-family="Cantarell" font-size="13.3333" font-weight="400" font-style="normal" 
>
<rect vector-effect="non-scaling-stroke" x="0" y="0" width="17" height="21"/>
<polyline fill="none" vector-effect="non-scaling-stroke" points="17,3 141,3 " />
<polyline fill="none" vector-effect="non-scaling-stroke" points="141,3 141,18 " />
<polyline fill="none" vector-effect="non-scaling-stroke" points="17,18 21,15 " />
<polyline fill="none" vector-effect="non-scaling-stroke" points="17,18 21,21 " />
<polyline fill="none" vector-effect="non-scaling-stroke" points="17,18 141,18 " />
</g>

<g fill="none" stroke="#000000" stroke-opacity="1" stroke-width="1" stroke-linecap="square" stroke-linejoin="bevel" transform="matrix(0.99684,0,0,0.99684,875.226,413.689)"
font-family="Cantarell" font-size="13.3333" font-weight="400" font-style="normal" 
>
</g>

<g fill="none" stroke="#000000" stroke-opacity="1" stroke-width="1" stroke-linecap="square" stroke-linejoin="bevel" transform="matrix(0.99684,0,0,0.99684,875.226,358.863)"
font-family="Cantarell" font-size="13.3333" font-weight="400" font-style="normal" 
>
</g>

<g fill="#ffffff" fill-opacity="1" stroke="none" transform="matrix(0.99684,0,0,0.99684,875.226,358.863)"
font-family="Cantarell" font-size="13.3333" font-weight="400" font-style="normal" 
>
<rect x="0" y="0" width="17" height="111"/>
</g>

<g fill="#ffff00" fill-opacity="1" stroke="#ff0000" stroke-opacity="1" stroke-width="1" stroke-linecap="square" stroke-linejoin="bevel" transform="matrix(0.99684,0,0,0.99684,875.226,358.863)"
font-family="Cantarell" font-size="13.3333" font-weight="400" font-style="normal" 
>
<rect vector-effect="non-scaling-stroke" x="0" y="0" width="17" height="111"/>
<polyline fill="none" vector-effect="non-scaling-stroke" points="17,3 49,3 " />
<polyline fill="none" vector-effect="non-scaling-stroke" points="49,3 49,108 " />
<polyline fill="none" vector-effect="non-scaling-stroke" points="17,108 21,105 " />
<polyline fill="none" vector-effect="non-scaling-stroke" points="17,108 21,111 " />
<polyline fill="none" vector-effect="non-scaling-stroke" points="17,108 49,108 " />
</g>

<g fill="none" stroke="#000000" stroke-opacity="1" stroke-width="1" stroke-linecap="square" stroke-linejoin="bevel" transform="matrix(0.99684,0,0,0.99684,875.226,358.863)"
font-family="Cantarell" font-size="13.3333" font-weight="400" font-style="normal" 
>
</g>

<g fill="none" stroke="#000000" stroke-opacity="1" stroke-width="1" stroke-linecap="square" stroke-linejoin="bevel" transform="matrix(0.99684,0,0,0.99684,880.21,393.752)"
font-family="Cantarell" font-size="13.3333" font-weight="400" font-style="normal" 
>
</g>

<g fill="none" stroke="#000000" stroke-opacity="1" stroke-width="1" stroke-linecap="square" stroke-linejoin="bevel" transform="matrix(0.99684,0,0,0.99684,880.21,393.752)"
font-family="Cantarell" font-size="13.3333" font-weight="400" font-style="normal" 
>
</g>

<g fill="none" stroke="#000000" stroke-opacity="1" stroke-width="1" stroke-linecap="square" stroke-linejoin="bevel" transform="matrix(0.99684,0,0,0.99684,880.21,393.752)"
font-family="Cantarell" font-size="13.3333" font-weight="400" font-style="normal" 
>
<text fill="#000000" fill-opacity="1" stroke="none" xml:space="preserve" x="3.78125" y="14.5" font-family="Cantarell" font-size="13.3333" font-weight="400" font-style="normal" 
 >notifyChangeMeasure(measure : IMeasure*)</text>
</g>

<g fill="none" stroke="#000000" stroke-opacity="1" stroke-width="1" stroke-linecap="square" stroke-linejoin="bevel" transform="matrix(0.99684,0,0,0.99684,880.21,393.752)"
font-family="Cantarell" font-size="13.3333" font-weight="400" font-style="normal" 
>
</g>

<g fill="none" stroke="#000000" stroke-opacity="1" stroke-width="1" stroke-linecap="square" stroke-linejoin="bevel" transform="matrix(1,0,0,1,0,0)"
font-family="Cantarell" font-size="13.3333" font-weight="400" font-style="normal" 
>
</g>
</g>
</svg>
